<?xml version="1.0" encoding="UTF-8" standalone="no"?>
<svg
        xmlns="http://www.w3.org/2000/svg"
        width="1450"
        height="300"
        version="1.1"
>
  <defs>
    <marker
            id="Arrow1Mend"
            orient="auto"
            overflow="visible"
            refX="0"
            refY="0"
    >
      <path
              fillRule="evenodd"
              stroke="#000"
              strokeWidth=".4pt"
              markerStart="none"
              d="M-4 0l-2 2 7-2-7-2z"
      ></path>
    </marker>
    <marker orient="auto" overflow="visible" refX="0" refY="0">
      <path
              fillRule="evenodd"
              stroke="#000"
              strokeWidth=".4pt"
              markerStart="none"
              d="M4 0l2-2-7 2 7 2z"
      ></path>
    </marker>
  </defs>
  <path fill="#fff" stroke="none" d="M0 0H1450V300H0z"></path>
  <g>
    <g
            fill="none"
            stroke="#000"
            strokeLinecap="butt"
            strokeLinejoin="miter"
            strokeOpacity="1"
            strokeWidth="1"
            markerEnd="url(#Arrow1Mend)"
            markerMid="none"
            markerStart="none"
            transform="translate(-800)"
    >
      <path d="M920.982 199.994V41.184"></path>
      <path d="M841.202 120.214h158.81"></path>
    </g>
    <path
            fill="none"
            stroke="#06f"
            strokeDasharray="none"
            strokeMiterlimit="4"
            strokeWidth="1"
            d="M184.982 120.214c-54.208 0-54.016.128-59.968-4.032-4.16-5.824-4.032-6.08-4.032-59.968 0 54.144.128 54.016-4.032 59.968-5.888 4.16-6.144 4.032-59.968 4.032 53.952 0 54.08-.128 59.968 4.032 4.16 5.952 4.032 5.952 4.032 59.968 0-55.168-.128-53.76 4.032-59.968 6.08-4.16 5.056-4.032 59.968-4.032z"
    ></path>
    <g
            fill="#000"
            fillOpacity="1"
            stroke="none"
            fontFamily="Helvetica"
            fontSize="20"
            transform="matrix(1.86603 0 0 1.86603 578.07 -780.026)"
    >
      <path d="M-266.041 543.906c-.098.43-.137.508-.684.508-.136 0-.273 0-.273.234 0 .098.059.157.156.157.332 0 .703-.04 1.035-.04.43 0 .84.04 1.25.04.059 0 .215 0 .215-.254 0-.137-.117-.137-.293-.137-.625 0-.625-.078-.625-.195 0-.157.528-2.188.606-2.5.156.37.508.8 1.152.8 1.445 0 3.008-1.816 3.008-3.652 0-1.172-.723-1.992-1.66-1.992-.625 0-1.23.45-1.64.937-.118-.683-.665-.937-1.114-.937-.586 0-.82.488-.918.703-.234.43-.39 1.172-.39 1.211 0 .137.116.137.136.137.137 0 .137-.02.215-.293.215-.88.469-1.485.918-1.485.215 0 .39.098.39.567 0 .293-.039.43-.097.644zm2.188-5.41c.078-.332.43-.684.644-.879.45-.371.8-.469 1.016-.469.488 0 .8.43.8 1.172s-.41 2.168-.644 2.637c-.43.879-1.016 1.289-1.484 1.289-.82 0-.977-1.035-.977-1.113 0-.02 0-.04.04-.196zm0 0"></path>
      <path d="M-248.321 538.3c.195 0 .43 0 .43-.234 0-.254-.235-.254-.41-.254h-7.462c-.175 0-.41 0-.41.254 0 .235.235.235.41.235zm.02 2.423c.175 0 .41 0 .41-.254 0-.235-.235-.235-.43-.235h-7.442c-.175 0-.41 0-.41.235 0 .254.235.254.41.254zm0 0"></path>
      <path d="M-248.322 555.45c.196 0 .43 0 .43-.235 0-.254-.234-.254-.41-.254h-7.461c-.176 0-.41 0-.41.254 0 .234.234.234.41.234zm.02 2.421c.176 0 .41 0 .41-.254 0-.234-.234-.234-.43-.234h-7.441c-.176 0-.41 0-.41.234 0 .254.234.254.41.254zm0 0"></path>
      <g transform="translate(-46.575 17.149)">
        <path d="M-191.438 538.398c0-.996-.059-1.992-.489-2.91-.566-1.21-1.601-1.406-2.11-1.406-.76 0-1.66.332-2.187 1.484-.39.86-.449 1.836-.449 2.832 0 .938.04 2.051.567 3.008a2.288 2.288 0 002.05 1.25c.664 0 1.621-.254 2.168-1.445.391-.86.45-1.836.45-2.813zm-2.618 3.985c-.488 0-1.23-.313-1.445-1.504-.137-.742-.137-1.895-.137-2.637 0-.8 0-1.621.098-2.285.234-1.484 1.172-1.602 1.484-1.602.41 0 1.23.235 1.465 1.465.137.703.137 1.64.137 2.422 0 .938 0 1.777-.137 2.578-.195 1.192-.898 1.563-1.465 1.563zm0 0"></path>
        <path d="M-188.557 541.719c0-.352-.293-.664-.645-.664a.671.671 0 00-.664.664.655.655 0 101.309 0zm0 0"></path>
        <path d="M-185.904 541.426l1.328-1.29c1.933-1.718 2.676-2.382 2.676-3.632 0-1.426-1.114-2.422-2.637-2.422a2.304 2.304 0 00-2.324 2.266c0 .683.625.683.664.683.215 0 .644-.137.644-.664a.641.641 0 00-.664-.644c-.097 0-.117 0-.156.02.273-.821.957-1.27 1.68-1.27 1.133 0 1.66 1.015 1.66 2.03 0 .997-.606 1.973-1.309 2.755l-2.383 2.656c-.136.137-.136.176-.136.469h4.629l.332-2.168h-.293c-.078.37-.157.918-.293 1.113-.078.098-.899.098-1.172.098zm0 0"></path>
        <path d="M-175.679 539.883c0-1.485-1.016-2.735-2.363-2.735-.586 0-1.133.196-1.582.645v-2.442c.254.079.664.157 1.054.157 1.543 0 2.422-1.133 2.422-1.29 0-.077-.039-.136-.137-.136 0 0-.039 0-.097.04-.254.116-.86.37-1.7.37a4.233 4.233 0 01-1.66-.351c-.097-.04-.117-.04-.136-.04-.137 0-.137.098-.137.293v3.692c0 .215 0 .312.176.312.097 0 .117-.02.176-.097.136-.196.585-.88 1.601-.88.645 0 .957.567 1.055.802.195.468.234.937.234 1.562 0 .45 0 1.191-.312 1.719-.293.488-.762.8-1.328.8-.899 0-1.622-.664-1.836-1.386.039 0 .078.02.214.02a.6.6 0 00.625-.606c0-.313-.214-.625-.625-.625-.175 0-.605.098-.605.664 0 1.074.86 2.285 2.246 2.285 1.445 0 2.715-1.191 2.715-2.773zm0 0"></path>
      </g>
      <g
              fontFamily="Helvetica"
              fontSize="20"
              transform="translate(-10.51 -29.892)"
      >
        <path d="M-231.782 571.317l1.328-1.289c1.934-1.719 2.676-2.383 2.676-3.633 0-1.425-1.113-2.422-2.637-2.422a2.304 2.304 0 00-2.324 2.266c0 .684.625.684.664.684.215 0 .645-.137.645-.664a.641.641 0 00-.664-.645c-.098 0-.117 0-.156.02.273-.82.957-1.27 1.68-1.27 1.132 0 1.66 1.016 1.66 2.031 0 .996-.606 1.973-1.31 2.754l-2.382 2.656c-.137.137-.137.176-.137.47h4.63l.331-2.169h-.293c-.078.371-.156.918-.293 1.114-.078.097-.898.097-1.172.097zm0 0"></path>
        <path d="M-220.658 566.701c.137 0 .351 0 .351-.195 0-.234-.214-.234-.351-.234h-5.195c-.137 0-.352 0-.352.215 0 .214.195.214.352.214zm0 0"></path>
        <path d="M-214.963 567.092h-.293c-.02.195-.117.703-.234.781-.059.059-.723.059-.86.059h-1.601c.918-.8 1.23-1.055 1.738-1.465.645-.508 1.25-1.055 1.25-1.875 0-1.055-.918-1.7-2.031-1.7-1.074 0-1.817.763-1.817 1.563 0 .43.372.489.47.489.195 0 .448-.157.448-.47 0-.155-.058-.468-.507-.468.273-.605.859-.8 1.27-.8.878 0 1.327.683 1.327 1.386 0 .762-.547 1.348-.82 1.66l-2.09 2.09c-.098.078-.098.098-.098.332h3.594zm0 0"></path>
      </g>
    </g>
  </g>
  <g>
    <g
            fill="none"
            stroke="#000"
            strokeLinecap="butt"
            strokeLinejoin="miter"
            strokeOpacity="1"
            strokeWidth="1"
            markerEnd="url(#Arrow1Mend)"
            markerMid="none"
            markerStart="none"
            transform="translate(-800)"
    >
      <path d="M1124.982 199.994V41.184"></path>
      <path d="M1045.202 120.214h158.81"></path>
    </g>
    <path
            fill="none"
            stroke="#06f"
            strokeDasharray="none"
            strokeMiterlimit="4"
            strokeWidth="1"
            d="M388.982 120.214c-23.36 0-38.4-6.4-48-16-9.6-9.6-16-24.64-16-48 0 24.256-6.912 38.912-16 48-9.472 9.472-24.448 16-48 16 23.872 0 38.656 6.656 48 16 9.408 9.408 16 24.256 16 48 0-23.488 6.464-38.464 16-48 9.152-9.152 23.808-16 48-16z"
    ></path>
    <g
            fill="#000"
            fillOpacity="1"
            stroke="none"
            fontFamily="Helvetica"
            fontSize="20"
            transform="matrix(1.86603 0 0 1.86603 785.328 -835.773)"
    >
      <path d="M-266.041 573.797c-.098.43-.137.508-.684.508-.136 0-.273 0-.273.234 0 .098.059.157.156.157.332 0 .703-.04 1.035-.04.43 0 .84.04 1.25.04.059 0 .215 0 .215-.254 0-.137-.117-.137-.293-.137-.625 0-.625-.078-.625-.195 0-.156.528-2.188.606-2.5.156.37.508.8 1.152.8 1.445 0 3.008-1.816 3.008-3.652 0-1.172-.723-1.992-1.66-1.992-.625 0-1.23.45-1.64.938-.118-.684-.665-.938-1.114-.938-.586 0-.82.488-.918.703-.234.43-.39 1.172-.39 1.211 0 .137.116.137.136.137.137 0 .137-.02.215-.293.215-.879.469-1.485.918-1.485.215 0 .39.098.39.567 0 .293-.039.43-.097.644zm2.188-5.41c.078-.332.43-.683.644-.879.45-.37.8-.469 1.016-.469.488 0 .8.43.8 1.172 0 .743-.41 2.168-.644 2.637-.43.879-1.016 1.29-1.484 1.29-.82 0-.977-1.036-.977-1.114 0-.02 0-.04.04-.195zm0 0"></path>
      <path d="M-248.321 568.192c.195 0 .43 0 .43-.235 0-.253-.235-.253-.41-.253h-7.462c-.175 0-.41 0-.41.253 0 .235.235.235.41.235zm.02 2.422c.175 0 .41 0 .41-.254 0-.235-.235-.235-.43-.235h-7.442c-.175 0-.41 0-.41.235 0 .254.235.254.41.254zm0 0"></path>
      <path d="M-248.322 585.34c.196 0 .43 0 .43-.234 0-.254-.235-.254-.41-.254h-7.461c-.176 0-.41 0-.41.254 0 .234.234.234.41.234zm.02 2.422c.175 0 .41 0 .41-.254 0-.234-.235-.234-.43-.234h-7.441c-.176 0-.41 0-.41.234 0 .254.234.254.41.254zm0 0"></path>
      <g transform="translate(-46.575 17.149)">
        <path d="M-191.438 568.29c0-.997-.059-1.993-.489-2.91-.566-1.212-1.601-1.407-2.11-1.407-.76 0-1.66.332-2.187 1.484-.39.86-.449 1.836-.449 2.832 0 .938.04 2.051.567 3.008a2.288 2.288 0 002.05 1.25c.664 0 1.621-.254 2.168-1.445.391-.86.45-1.836.45-2.813zm-2.618 3.984c-.488 0-1.23-.313-1.445-1.504-.137-.742-.137-1.895-.137-2.637 0-.8 0-1.621.098-2.285.234-1.484 1.172-1.602 1.484-1.602.41 0 1.23.235 1.465 1.465.137.703.137 1.64.137 2.422 0 .938 0 1.777-.137 2.578-.195 1.192-.898 1.563-1.465 1.563zm0 0"></path>
        <path d="M-188.557 571.61c0-.352-.293-.664-.645-.664a.671.671 0 00-.664.664.655.655 0 101.309 0zm0 0"></path>
        <path d="M-181.9 569.774c0-1.485-1.016-2.735-2.364-2.735-.586 0-1.132.196-1.582.645v-2.442c.254.079.664.157 1.055.157 1.543 0 2.422-1.133 2.422-1.29 0-.077-.04-.136-.137-.136 0 0-.039 0-.097.04-.254.116-.86.37-1.7.37a4.233 4.233 0 01-1.66-.351c-.098-.04-.117-.04-.137-.04-.136 0-.136.098-.136.293v3.692c0 .215 0 .312.175.312.098 0 .118-.02.176-.097.137-.196.586-.88 1.602-.88.644 0 .957.567 1.055.802.195.468.234.937.234 1.562 0 .45 0 1.191-.313 1.719-.293.488-.761.8-1.328.8-.898 0-1.62-.663-1.836-1.386.04 0 .078.02.215.02a.6.6 0 00.625-.606c0-.313-.215-.625-.625-.625-.176 0-.605.098-.605.664 0 1.074.86 2.285 2.246 2.285 1.445 0 2.715-1.191 2.715-2.773zm0 0"></path>
      </g>
      <g
              fontFamily="Helvetica"
              fontSize="20"
              transform="translate(-10.51 -14.94)"
      >
        <path d="M-231.782 586.257l1.328-1.289c1.934-1.719 2.676-2.383 2.676-3.633 0-1.425-1.113-2.422-2.637-2.422a2.304 2.304 0 00-2.324 2.266c0 .684.625.684.664.684.215 0 .645-.137.645-.664a.641.641 0 00-.664-.645c-.098 0-.117 0-.156.02.273-.82.957-1.27 1.68-1.27 1.132 0 1.66 1.016 1.66 2.031 0 .996-.606 1.973-1.31 2.754l-2.382 2.656c-.137.137-.137.176-.137.47h4.63l.331-2.169h-.293c-.078.371-.156.918-.293 1.114-.078.097-.898.097-1.172.097zm0 0"></path>
        <path d="M-220.658 581.641c.137 0 .351 0 .351-.195 0-.234-.214-.234-.351-.234h-5.195c-.137 0-.352 0-.352.215 0 .214.195.214.352.214zm0 0"></path>
        <path d="M-216.447 578.067c0-.234 0-.234-.254-.234-.567.547-1.348.547-1.7.547v.312c.196 0 .782 0 1.25-.234v4.433c0 .293 0 .41-.859.41h-.332v.313c.157 0 1.23-.039 1.543-.039.274 0 1.367.04 1.563.04v-.313h-.332c-.88 0-.88-.118-.88-.41zm0 0"></path>
      </g>
    </g>
  </g>
  <g>
    <g
            fill="none"
            stroke="#000"
            strokeLinecap="butt"
            strokeLinejoin="miter"
            strokeOpacity="1"
            strokeWidth="1"
            markerEnd="url(#Arrow1Mend)"
            markerMid="none"
            markerStart="none"
            transform="translate(-800)"
    >
      <path d="M1328.982 199.994V41.184"></path>
      <path d="M1249.202 120.214h158.81"></path>
    </g>
    <path
            fill="none"
            stroke="#06f"
            strokeDasharray="none"
            strokeMiterlimit="4"
            strokeWidth="1"
            d="M592.982 120.214l-64-64-64 64 64 64z"
    ></path>
    <g
            fontFamily="Helvetica"
            fontSize="20"
            transform="matrix(1.86603 0 0 1.86603 995.652 -891.522)"
    >
      <path
              fill="#000"
              fillOpacity="1"
              stroke="none"
              d="M-266.041 603.689c-.098.43-.137.508-.684.508-.136 0-.273 0-.273.234 0 .098.059.156.156.156.332 0 .703-.039 1.035-.039.43 0 .84.04 1.25.04.059 0 .215 0 .215-.255 0-.136-.117-.136-.293-.136-.625 0-.625-.078-.625-.196 0-.156.528-2.187.606-2.5.156.371.508.801 1.152.801 1.445 0 3.008-1.816 3.008-3.652 0-1.172-.723-1.992-1.66-1.992-.625 0-1.23.449-1.64.937-.118-.684-.665-.937-1.114-.937-.586 0-.82.488-.918.703-.234.43-.39 1.172-.39 1.21 0 .137.116.137.136.137.137 0 .137-.02.215-.293.215-.879.469-1.484.918-1.484.215 0 .39.098.39.566 0 .293-.039.43-.097.645zm2.188-5.41c.078-.332.43-.684.644-.88.45-.37.8-.468 1.016-.468.488 0 .8.43.8 1.172s-.41 2.168-.644 2.637c-.43.878-1.016 1.289-1.484 1.289-.82 0-.977-1.036-.977-1.114 0-.02 0-.039.04-.195zm0 0"
      ></path>
      <path
              fill="#000"
              fillOpacity="1"
              stroke="none"
              d="M-248.321 598.083c.195 0 .43 0 .43-.234 0-.254-.235-.254-.41-.254h-7.462c-.175 0-.41 0-.41.254 0 .234.235.234.41.234zm.02 2.422c.175 0 .41 0 .41-.254 0-.234-.235-.234-.43-.234h-7.442c-.175 0-.41 0-.41.234 0 .254.235.254.41.254zm0 0"
      ></path>
      <g
              fill="#000"
              fillOpacity="1"
              stroke="none"
              transform="translate(-9.873)"
      >
        <path d="M-231.782 601.208l1.328-1.289c1.934-1.718 2.676-2.383 2.676-3.633 0-1.425-1.113-2.421-2.637-2.421a2.304 2.304 0 00-2.324 2.265c0 .684.625.684.664.684.215 0 .645-.137.645-.664a.641.641 0 00-.664-.645c-.098 0-.117 0-.156.02.273-.82.957-1.27 1.68-1.27 1.132 0 1.66 1.016 1.66 2.031 0 .997-.606 1.973-1.31 2.754l-2.382 2.657c-.137.136-.137.175-.137.468h4.63l.331-2.168h-.293c-.078.371-.156.918-.293 1.114-.078.097-.898.097-1.172.097zm0 0"></path>
        <path d="M-222.65 595.792c0-.957-.118-1.66-.508-2.266-.274-.39-.82-.742-1.504-.742-2.031 0-2.031 2.383-2.031 3.008s0 2.949 2.03 2.949c2.013 0 2.013-2.324 2.013-2.95zm-2.012 2.695c-.41 0-.938-.234-1.113-.937-.118-.508-.118-1.23-.118-1.875s0-1.309.118-1.778c.195-.683.742-.879 1.113-.879.469 0 .918.293 1.074.801.137.469.156 1.094.156 1.856 0 .644 0 1.289-.117 1.836-.176.8-.762.976-1.113.976zm0 0"></path>
      </g>
      <path
              fill="#000"
              fillOpacity="1"
              stroke="none"
              d="M-248.322 615.232c.196 0 .43 0 .43-.234 0-.254-.234-.254-.41-.254h-7.461c-.176 0-.41 0-.41.254 0 .234.234.234.41.234zm.02 2.422c.176 0 .41 0 .41-.254 0-.234-.234-.234-.43-.234h-7.441c-.176 0-.41 0-.41.234 0 .254.234.254.41.254zm0 0"
      ></path>
      <g transform="translate(-38.79 17.149)">
        <path
                fill="#000"
                fillOpacity="1"
                stroke="none"
                d="M-201.263 594.197c0-.313 0-.332-.293-.332-.781.8-1.875.8-2.266.8v.391c.254 0 .977 0 1.621-.332v6.465c0 .449-.039.586-1.152.586h-.39v.39c.43-.039 1.503-.039 2.011-.039.488 0 1.582 0 2.012.04v-.391h-.39c-1.134 0-1.153-.137-1.153-.586zm0 0"
        ></path>
      </g>
    </g>
  </g>
  <g>
    <g
            fill="none"
            stroke="#000"
            strokeLinecap="butt"
            strokeLinejoin="miter"
            strokeOpacity="1"
            strokeWidth="1"
            markerEnd="url(#Arrow1Mend)"
            markerMid="none"
            markerStart="none"
            transform="translate(-800)"
    >
      <path d="M1532.982 199.994V41.184"></path>
      <path d="M1453.202 120.214h158.81"></path>
    </g>
    <circle
            cx="732.982"
            cy="-120.214"
            r="64"
            fill="none"
            stroke="#06f"
            strokeDasharray="none"
            strokeMiterlimit="4"
            strokeWidth="1"
            transform="scale(1 -1)"
    ></circle>
    <g
            fontFamily="Helvetica"
            fontSize="20"
            transform="matrix(1.86603 0 0 1.86603 1200.453 -947.327)"
    >
      <path
              fill="#000"
              fillOpacity="1"
              stroke="none"
              d="M-266.041 633.569c-.098.43-.137.508-.684.508-.136 0-.273 0-.273.234 0 .098.059.156.156.156.332 0 .703-.039 1.035-.039.43 0 .84.04 1.25.04.059 0 .215 0 .215-.255 0-.136-.117-.136-.293-.136-.625 0-.625-.079-.625-.196 0-.156.528-2.187.606-2.5.156.371.508.801 1.152.801 1.445 0 3.008-1.816 3.008-3.652 0-1.172-.723-1.992-1.66-1.992-.625 0-1.23.449-1.64.937-.118-.684-.665-.937-1.114-.937-.586 0-.82.488-.918.703-.235.43-.39 1.172-.39 1.21 0 .137.116.137.136.137.137 0 .137-.02.215-.293.215-.879.469-1.484.918-1.484.215 0 .39.098.39.566 0 .293-.039.43-.097.645zm2.188-5.41c.078-.332.43-.684.644-.88.45-.37.8-.468 1.016-.468.488 0 .8.43.8 1.172s-.41 2.168-.644 2.637c-.43.878-1.016 1.289-1.484 1.289-.82 0-.977-1.036-.977-1.114 0-.02 0-.039.04-.195zm0 0"
      ></path>
      <path
              fill="#000"
              fillOpacity="1"
              stroke="none"
              d="M-248.321 627.963c.195 0 .43 0 .43-.234 0-.254-.235-.254-.41-.254h-7.462c-.175 0-.41 0-.41.254 0 .234.235.234.41.234zm.02 2.422c.175 0 .41 0 .41-.254 0-.234-.235-.234-.43-.234h-7.442c-.175 0-.41 0-.41.234 0 .254.235.254.41.254zm0 0"
      ></path>
      <path
              fill="#000"
              fillOpacity="1"
              stroke="none"
              d="M-248.32 645.112c.195 0 .43 0 .43-.234 0-.254-.235-.254-.41-.254h-7.462c-.175 0-.41 0-.41.254 0 .234.235.234.41.234zm.02 2.422c.175 0 .41 0 .41-.254 0-.234-.235-.234-.43-.234h-7.442c-.175 0-.41 0-.41.234 0 .254.235.254.41.254zm0 0"
      ></path>
      <g transform="translate(-38.789 17.149)">
        <path
                fill="#000"
                fillOpacity="1"
                stroke="none"
                d="M-203.353 631.088l1.328-1.289c1.934-1.719 2.676-2.383 2.676-3.633 0-1.425-1.113-2.422-2.637-2.422a2.304 2.304 0 00-2.324 2.266c0 .684.625.684.664.684.215 0 .645-.137.645-.664a.641.641 0 00-.664-.645c-.098 0-.118 0-.157.02.274-.82.957-1.27 1.68-1.27 1.133 0 1.66 1.016 1.66 2.031 0 .996-.605 1.973-1.308 2.754l-2.383 2.656c-.137.137-.137.176-.137.47h4.629l.332-2.169h-.293c-.078.371-.156.918-.293 1.114-.078.097-.898.097-1.172.097zm0 0"
        ></path>
      </g>
      <g
              fill="#000"
              fillOpacity="1"
              stroke="none"
              fontFamily="Helvetica"
              fontSize="20"
              transform="translate(-10.36 14.94)"
      >
        <path d="M-231.782 616.148l1.328-1.289c1.934-1.718 2.676-2.383 2.676-3.633 0-1.425-1.113-2.421-2.637-2.421a2.304 2.304 0 00-2.324 2.265c0 .684.625.684.664.684.215 0 .645-.137.645-.664a.641.641 0 00-.664-.645c-.098 0-.117 0-.156.02.273-.82.957-1.27 1.68-1.27 1.132 0 1.66 1.016 1.66 2.031 0 .997-.606 1.973-1.31 2.754l-2.382 2.657c-.137.136-.137.175-.137.468h4.63l.331-2.168h-.293c-.078.371-.156.918-.293 1.114-.078.097-.898.097-1.172.097zm0 0"></path>
        <path d="M-224.232 607.958c0-.234 0-.234-.254-.234-.567.547-1.348.547-1.7.547v.312c.196 0 .782 0 1.25-.234v4.434c0 .293 0 .41-.859.41h-.332v.312c.156 0 1.23-.039 1.543-.039.273 0 1.367.04 1.563.04v-.313h-.332c-.88 0-.88-.117-.88-.41zm0 0"></path>
      </g>
    </g>
  </g>
  <g>
    <g
            fill="none"
            stroke="#000"
            strokeLinecap="butt"
            strokeLinejoin="miter"
            strokeOpacity="1"
            strokeWidth="1"
            markerEnd="url(#Arrow1Mend)"
            markerMid="none"
            markerStart="none"
            transform="translate(-800)"
    >
      <path d="M1736.982 199.994V41.184"></path>
      <path d="M1657.202 120.214h158.81"></path>
    </g>
    <path
            fill="none"
            stroke="#06f"
            strokeDasharray="none"
            strokeMiterlimit="4"
            strokeWidth="1"
            d="M1000.982 120.214c-.064-24.064.768-42.752-10.176-53.824-11.072-10.944-29.76-10.112-53.824-10.176-24.064.064-42.752-.768-53.824 10.176-10.944 11.072-10.112 29.76-10.176 53.824.064 24.064-.768 42.752 10.176 53.824 11.072 10.944 29.76 10.112 53.824 10.176 24.064-.064 42.752.768 53.824-10.176 10.944-11.072 10.112-29.76 10.176-53.824z"
    ></path>
    <g
            fontFamily="Helvetica"
            fontSize="20"
            transform="matrix(1.86603 0 0 1.86603 1403.842 -1003.075)"
    >
      <path
              fill="#000"
              fillOpacity="1"
              stroke="none"
              d="M-266.041 663.46c-.098.43-.137.508-.684.508-.136 0-.273 0-.273.234 0 .098.059.156.156.156.332 0 .703-.039 1.035-.039.43 0 .84.04 1.25.04.059 0 .215 0 .215-.255 0-.136-.117-.136-.293-.136-.625 0-.625-.078-.625-.196 0-.156.528-2.187.606-2.5.156.372.508.801 1.152.801 1.445 0 3.008-1.816 3.008-3.652 0-1.172-.723-1.992-1.66-1.992-.625 0-1.23.449-1.64.937-.118-.683-.665-.937-1.114-.937-.586 0-.82.488-.918.703-.235.43-.39 1.172-.39 1.21 0 .137.116.137.136.137.137 0 .137-.019.215-.293.215-.878.469-1.484.918-1.484.215 0 .39.098.39.567 0 .292-.039.43-.097.644zm2.188-5.41c.078-.332.43-.684.644-.88.45-.37.8-.468 1.016-.468.488 0 .8.43.8 1.172s-.41 2.168-.644 2.637c-.43.879-1.016 1.289-1.484 1.289-.82 0-.977-1.035-.977-1.114 0-.019 0-.039.04-.195zm0 0"
      ></path>
      <path
              fill="#000"
              fillOpacity="1"
              stroke="none"
              d="M-248.321 657.854c.195 0 .43 0 .43-.234 0-.254-.235-.254-.41-.254h-7.462c-.175 0-.41 0-.41.254 0 .234.235.234.41.234zm.02 2.422c.175 0 .41 0 .41-.254 0-.234-.235-.234-.43-.234h-7.442c-.175 0-.41 0-.41.234 0 .254.235.254.41.254zm0 0"
      ></path>
      <path
              fill="#000"
              fillOpacity="1"
              stroke="none"
              d="M-248.32 675.003c.195 0 .43 0 .43-.234 0-.254-.235-.254-.41-.254h-7.462c-.175 0-.41 0-.41.254 0 .234.235.234.41.234zm.02 2.422c.175 0 .41 0 .41-.254 0-.234-.235-.234-.43-.234h-7.442c-.175 0-.41 0-.41.234 0 .254.235.254.41.254zm0 0"
      ></path>
      <g transform="translate(-38.788 17.149)">
        <path
                fill="#000"
                fillOpacity="1"
                stroke="none"
                d="M-201.263 659.886v1.074c0 .449-.04.586-.957.586h-.254v.39c.508-.039 1.152-.039 1.68-.039.527 0 1.171 0 1.699.04v-.391h-.274c-.918 0-.937-.137-.937-.586v-1.074h1.23v-.391h-1.23v-5.664c0-.254 0-.332-.215-.332-.098 0-.137 0-.234.156l-3.828 5.84v.39zm.058-.391h-3.027l3.027-4.648zm0 0"
        ></path>
      </g>
      <g
              fill="#000"
              fillOpacity="1"
              stroke="none"
              fontFamily="Helvetica"
              fontSize="20"
              transform="translate(-10.633 29.891)"
      >
        <path d="M-231.782 631.088l1.328-1.289c1.934-1.719 2.676-2.383 2.676-3.633 0-1.425-1.113-2.422-2.637-2.422a2.304 2.304 0 00-2.324 2.266c0 .684.625.684.664.684.215 0 .645-.137.645-.664a.641.641 0 00-.664-.645c-.098 0-.117 0-.156.02.273-.82.957-1.27 1.68-1.27 1.132 0 1.66 1.016 1.66 2.031 0 .996-.606 1.973-1.31 2.754l-2.382 2.656c-.137.137-.137.176-.137.47h4.63l.331-2.169h-.293c-.078.371-.156.918-.293 1.114-.078.097-.898.097-1.172.097zm0 0"></path>
        <path d="M-222.748 626.874h-.293c-.02.196-.117.703-.234.782-.059.058-.723.058-.86.058h-1.601c.918-.8 1.23-1.055 1.738-1.465.645-.507 1.25-1.054 1.25-1.875 0-1.054-.918-1.699-2.031-1.699-1.074 0-1.817.762-1.817 1.563 0 .43.371.488.47.488.194 0 .448-.156.448-.469 0-.156-.058-.469-.508-.469.274-.605.86-.8 1.27-.8.879 0 1.328.683 1.328 1.386 0 .762-.547 1.348-.82 1.66l-2.09 2.09c-.098.078-.098.098-.098.332h3.594zm0 0"></path>
      </g>
    </g>
  </g>
  <g fill="#000" fillOpacity="1" stroke="none" strokeWidth="0.012">
    <path d="M1123.404 121.19a2.404 2.404 0 11-4.808 0 2.404 2.404 0 114.808 0z"></path>
    <path d="M1143.404 121.19a2.404 2.404 0 11-4.808 0 2.404 2.404 0 114.808 0z"></path>
    <path d="M1163.404 121.19a2.404 2.404 0 11-4.808 0 2.404 2.404 0 114.808 0z"></path>
  </g>
  <g>
    <g
            fill="none"
            stroke="#000"
            strokeLinecap="butt"
            strokeLinejoin="miter"
            strokeOpacity="1"
            strokeWidth="1"
            markerEnd="url(#Arrow1Mend)"
            markerMid="none"
            markerStart="none"
            transform="translate(-800)"
    >
      <path d="M2145.018 199.994V41.184"></path>
      <path d="M2065.238 120.214h158.81"></path>
    </g>
    <path
            fill="none"
            stroke="#06f"
            strokeWidth="1.024"
            d="M1409.018 56.214h-128v128h128z"
    ></path>
    <g
            fontFamily="Helvetica"
            fontSize="20"
            transform="matrix(1.86603 0 0 1.86603 1807.05 -1032.115)"
    >
      <path
              fill="#000"
              fillOpacity="1"
              stroke="none"
              d="M-266.041 678.4c-.098.43-.137.508-.684.508-.136 0-.273 0-.273.234 0 .098.059.156.156.156.332 0 .703-.039 1.035-.039.43 0 .84.04 1.25.04.059 0 .215 0 .215-.255 0-.136-.117-.136-.293-.136-.625 0-.625-.079-.625-.196 0-.156.528-2.187.606-2.5.156.371.508.801 1.152.801 1.445 0 3.008-1.816 3.008-3.652 0-1.172-.723-1.992-1.66-1.992-.625 0-1.23.449-1.64.937-.118-.684-.665-.937-1.114-.937-.586 0-.82.488-.918.703-.235.43-.39 1.172-.39 1.21 0 .137.116.137.136.137.137 0 .137-.02.215-.293.215-.879.469-1.484.918-1.484.215 0 .39.098.39.566 0 .293-.039.43-.097.645zm2.188-5.41c.078-.332.43-.684.644-.88.45-.37.8-.468 1.016-.468.488 0 .8.43.8 1.172s-.41 2.168-.644 2.637c-.43.878-1.016 1.289-1.484 1.289-.82 0-.977-1.036-.977-1.114 0-.02 0-.039.04-.195zm0 0"
      ></path>
      <path
              fill="#000"
              fillOpacity="1"
              stroke="none"
              d="M-248.321 672.794c.195 0 .43 0 .43-.234 0-.254-.235-.254-.41-.254h-7.462c-.175 0-.41 0-.41.254 0 .234.235.234.41.234zm.02 2.422c.175 0 .41 0 .41-.254 0-.234-.235-.234-.43-.234h-7.442c-.175 0-.41 0-.41.234 0 .254.235.254.41.254zm0 0"
      ></path>
      <g
              fill="#000"
              fillOpacity="1"
              stroke="none"
              transform="translate(-10.302)"
      >
        <path d="M-231.782 675.92l1.328-1.29c1.934-1.718 2.676-2.382 2.676-3.632 0-1.426-1.113-2.422-2.637-2.422a2.304 2.304 0 00-2.324 2.266c0 .683.625.683.664.683.215 0 .645-.136.645-.664a.641.641 0 00-.664-.644c-.098 0-.117 0-.156.02.273-.821.957-1.27 1.68-1.27 1.132 0 1.66 1.015 1.66 2.03 0 .997-.606 1.974-1.31 2.755l-2.382 2.656c-.137.137-.137.176-.137.469h4.63l.331-2.168h-.293c-.078.37-.156.918-.293 1.113-.078.098-.898.098-1.172.098zm0 0"></path>
        <path d="M-222.103 670.905c-.47-.547-.606-.684-.938-.918-.527-.39-1.094-.547-1.562-.547-1.094 0-1.875.937-1.875 1.972 0 1.016.761 1.954 1.835 1.954 1.211 0 2.07-.977 2.383-1.446.45.547.606.684.918.918.547.39 1.094.528 1.582.528 1.074 0 1.856-.918 1.856-1.954 0-1.035-.742-1.972-1.836-1.972-1.211 0-2.051.996-2.363 1.465zm.273.312c.352-.566 1.113-1.445 2.168-1.445.898 0 1.523.8 1.523 1.64 0 .82-.683 1.485-1.484 1.485-.82 0-1.367-.664-2.207-1.68zm-.723.371c-.332.567-1.093 1.465-2.168 1.465-.898 0-1.504-.8-1.504-1.64 0-.84.684-1.485 1.485-1.485.8 0 1.367.664 2.187 1.66zm0 0"></path>
      </g>
      <path
              fill="#000"
              fillOpacity="1"
              stroke="none"
              d="M-248.321 689.943c.195 0 .43 0 .43-.234 0-.254-.235-.254-.41-.254h-7.462c-.176 0-.41 0-.41.254 0 .234.234.234.41.234zm.02 2.422c.175 0 .41 0 .41-.254 0-.234-.235-.234-.43-.234h-7.442c-.176 0-.41 0-.41.234 0 .254.234.254.41.254zm0 0"
      ></path>
      <g transform="translate(-43.751 17.149)">
        <path
                fill="#000"
                fillOpacity="1"
                stroke="none"
                d="M-193.645 673.497c-.664-.84-.82-1.035-1.211-1.347-.703-.567-1.387-.781-2.032-.781-1.445 0-2.402 1.367-2.402 2.832 0 1.425.918 2.812 2.363 2.812 1.426 0 2.461-1.133 3.067-2.129.683.84.82 1.035 1.21 1.348.704.566 1.407.781 2.032.781 1.465 0 2.402-1.367 2.402-2.832 0-1.426-.918-2.812-2.343-2.812-1.446 0-2.481 1.132-3.086 2.128zm.332.43c.507-.898 1.425-2.168 2.832-2.168 1.328 0 1.992 1.309 1.992 2.422 0 1.23-.84 2.227-1.934 2.227-.722 0-1.27-.508-1.543-.782-.312-.332-.586-.722-1.347-1.699zm-.86.527c-.508.899-1.445 2.168-2.851 2.168-1.309 0-1.993-1.308-1.993-2.421 0-1.23.84-2.227 1.934-2.227.723 0 1.29.508 1.543.781.313.332.606.723 1.367 1.7zm0 0"
        ></path>
      </g>
    </g>
  </g>
</svg>